<svg width="18" height="16" viewBox="0 0 18 16" fill="none" xmlns="http://www.w3.org/2000/svg">
<path d="M4.36364 11.6364C3.56364 11.6364 2.91636 12.2909 2.91636 13.0909C2.91636 13.8909 3.56364 14.5455 4.36364 14.5455C5.16364 14.5455 5.81818 13.8909 5.81818 13.0909C5.81818 12.2909 5.16364 11.6364 4.36364 11.6364ZM11.6364 11.6364C10.8364 11.6364 10.1891 12.2909 10.1891 13.0909C10.1891 13.8909 10.8364 14.5455 11.6364 14.5455C12.4364 14.5455 13.0909 13.8909 13.0909 13.0909C13.0909 12.2909 12.4364 11.6364 11.6364 11.6364ZM10.5818 8C11.1273 8 11.6073 7.70182 11.8545 7.25091L14.4582 2.53091C14.5195 2.42067 14.5509 2.29634 14.5494 2.17022C14.5479 2.0441 14.5135 1.92056 14.4496 1.81183C14.3856 1.70309 14.2944 1.61293 14.185 1.55027C14.0755 1.4876 13.9516 1.45461 13.8255 1.45455H3.06182L2.37818 0H0V1.45455H1.45455L4.07273 6.97455L3.09091 8.74909C2.56 9.72364 3.25818 10.9091 4.36364 10.9091H13.0909V9.45455H4.36364L5.16364 8H10.5818ZM3.75273 2.90909H12.5891L10.5818 6.54545H5.47636L3.75273 2.90909Z" fill="#062A3B"/>
<circle cx="13.3324" cy="11.6363" r="4.36364" fill="#E05132"/>
<path d="M13.1446 13.0909V10.6085L13.4161 10.88H12.6016V10.3757H13.773V13.0909H13.1446Z" fill="#062A3B"/>
</svg>
