<svg width="113" height="20" viewBox="0 0 113 20" fill="none" xmlns="http://www.w3.org/2000/svg">
<path d="M5.31563 15.7039H11.9678V19.5008H0V0H11.6944V3.79688H5.31563V7.776H10.8135V11.5729H5.31563V15.7039Z" fill="#0A4865"/>
<path d="M21.8159 7.32037V4.16138C21.8159 3.71588 21.5628 3.49313 21.0565 3.49313H18.8695V7.98863H21.0565C21.5628 7.98863 21.8159 7.76588 21.8159 7.32037ZM21.8159 15.3394V12.15C21.8159 11.7045 21.5628 11.4818 21.0565 11.4818H18.8695V16.0076H21.0565C21.5628 16.0076 21.8159 15.7849 21.8159 15.3394ZM13.645 0H22.5753C25.552 0 27.0404 1.2555 27.0404 3.7665V6.25725C27.0404 8.019 26.5544 9.16312 25.5824 9.68962C26.1494 9.93262 26.5341 10.3073 26.7366 10.8135C26.9391 11.2995 27.0404 11.9677 27.0404 12.8182V15.7343C27.0404 18.2453 25.552 19.5008 22.5753 19.5008H13.645V0Z" fill="#0A4865"/>
<path d="M39.2398 19.5008L38.6323 16.5848H33.9545L33.3166 19.5008H28.0921L33.104 0H39.5739L44.5858 19.5008H39.2398ZM34.7746 12.8182H37.8121L36.3238 5.80162L34.7746 12.8182Z" fill="#0A4865"/>
<path d="M58.8611 7.29H53.5454V4.16138C53.5454 3.71588 53.2923 3.49313 52.7861 3.49313H51.7229C51.2167 3.49313 50.9636 3.71588 50.9636 4.16138V15.3394C50.9636 15.7849 51.2167 16.0076 51.7229 16.0076H52.7861C53.2923 16.0076 53.5454 15.7849 53.5454 15.3394V12.3322H58.8611V15.7343C58.8611 18.2453 57.3727 19.5008 54.3959 19.5008H50.1131C47.1363 19.5008 45.6479 18.2453 45.6479 15.7343V3.7665C45.6479 1.2555 47.1363 0 50.1131 0H54.3959C57.3727 0 58.8611 1.2555 58.8611 3.7665V7.29Z" fill="#0A4865"/>
<path d="M65.489 16.4648V15.5448C65.489 15.2074 65.2973 15.0388 64.914 15.0388H63.511C61.303 15.0388 60.199 14.0958 60.199 12.2098V10.8757C60.199 8.97442 61.326 8.02375 63.58 8.02375H65.719C67.973 8.02375 69.1 8.97442 69.1 10.8757V11.8418H65.374V11.0598C65.374 10.7224 65.1823 10.5538 64.799 10.5538H64.569C64.1857 10.5538 63.994 10.7224 63.994 11.0598V12.0718C63.994 12.4091 64.1857 12.5778 64.569 12.5778H65.972C67.1527 12.5778 67.996 12.8231 68.502 13.3138C69.0233 13.7891 69.284 14.4791 69.284 15.3838V16.6488C69.284 18.5501 68.157 19.5008 65.903 19.5008H63.649C61.395 19.5008 60.268 18.5501 60.268 16.6488V15.7058H64.063V16.4648C64.063 16.8021 64.2547 16.9708 64.638 16.9708H64.914C65.2973 16.9708 65.489 16.8021 65.489 16.4648Z" fill="#0A4865"/>
<path d="M76.7202 8.02375H77.1342C79.1735 8.02375 80.1932 8.97442 80.1932 10.8757V19.5008H76.2832V11.4047C76.2832 11.0674 76.0915 10.8988 75.7082 10.8988H75.3172C74.9032 10.8988 74.6962 11.1287 74.6962 11.5887V19.5008H70.7862V4.11375H74.6962V9.26575C74.9875 8.43775 75.6622 8.02375 76.7202 8.02375Z" fill="#0A4865"/>
<path d="M85.0778 8.02375H87.9988C89.1641 8.02375 89.9998 8.26908 90.5058 8.75975C91.0118 9.25042 91.2648 9.95575 91.2648 10.8757V16.6488C91.2648 17.5688 91.0118 18.2741 90.5058 18.7648C89.9998 19.2554 89.1641 19.5008 87.9988 19.5008H85.0778C83.9125 19.5008 83.0768 19.2554 82.5708 18.7648C82.0648 18.2741 81.8118 17.5688 81.8118 16.6488V10.8757C81.8118 9.95575 82.0648 9.25042 82.5708 8.75975C83.0768 8.26908 83.9125 8.02375 85.0778 8.02375ZM87.4238 16.2808V11.2437C87.4238 10.9064 87.2321 10.7378 86.8488 10.7378H86.2278C85.8445 10.7378 85.6528 10.9064 85.6528 11.2437V16.2808C85.6528 16.6181 85.8445 16.7868 86.2278 16.7868H86.8488C87.2321 16.7868 87.4238 16.6181 87.4238 16.2808Z" fill="#0A4865"/>
<path d="M96.151 8.02375H98.957C101.211 8.02375 102.338 8.97442 102.338 10.8757V14.7858H96.473V16.3038C96.473 16.6411 96.6647 16.8097 97.048 16.8097H98.06C98.4434 16.8097 98.635 16.6258 98.635 16.2578V15.6138H102.338V16.6488C102.338 18.5501 101.211 19.5008 98.957 19.5008H96.151C93.897 19.5008 92.77 18.5501 92.77 16.6488V10.8757C92.77 8.97442 93.897 8.02375 96.151 8.02375ZM96.473 12.6698H98.635V11.2207C98.635 10.8834 98.4434 10.7148 98.06 10.7148H97.048C96.6647 10.7148 96.473 10.8834 96.473 11.2207V12.6698Z" fill="#0A4865"/>
<path d="M108.771 16.4648V15.5448C108.771 15.2074 108.58 15.0388 108.196 15.0388H106.793C104.585 15.0388 103.481 14.0958 103.481 12.2098V10.8757C103.481 8.97442 104.608 8.02375 106.862 8.02375H109.001C111.255 8.02375 112.382 8.97442 112.382 10.8757V11.8418H108.656V11.0598C108.656 10.7224 108.465 10.5538 108.081 10.5538H107.851C107.468 10.5538 107.276 10.7224 107.276 11.0598V12.0718C107.276 12.4091 107.468 12.5778 107.851 12.5778H109.254C110.435 12.5778 111.278 12.8231 111.784 13.3138C112.306 13.7891 112.566 14.4791 112.566 15.3838V16.6488C112.566 18.5501 111.439 19.5008 109.185 19.5008H106.931C104.677 19.5008 103.55 18.5501 103.55 16.6488V15.7058H107.345V16.4648C107.345 16.8021 107.537 16.9708 107.92 16.9708H108.196C108.58 16.9708 108.771 16.8021 108.771 16.4648Z" fill="#0A4865"/>
</svg>
