<svg width="16" height="16" viewBox="0 0 16 16" fill="none" xmlns="http://www.w3.org/2000/svg">
<path d="M6.38911 9.96312e-07C5.39043 -0.000553251 4.40553 0.230145 3.51356 0.673561C2.62158 1.11698 1.8474 1.76075 1.2532 2.55315C0.659009 3.34555 0.261372 4.2645 0.0922394 5.23615C-0.0768937 6.2078 -0.0128065 7.20506 0.279352 8.14782C0.57151 9.09058 1.08359 9.95255 1.77446 10.6645C2.46533 11.3764 3.31571 11.9184 4.2573 12.247C5.19888 12.5756 6.20541 12.6816 7.19602 12.5564C8.18663 12.4313 9.13369 12.0785 9.96113 11.5265L14.4928 16L16 14.5121L11.5037 10.0734C12.213 9.13672 12.6443 8.0236 12.7492 6.85868C12.8541 5.69375 12.6285 4.523 12.0976 3.47746C11.5668 2.43192 10.7516 1.55287 9.74345 0.938712C8.73526 0.324552 7.57381 -0.000479906 6.38911 9.96312e-07ZM2.13518 6.30372C2.13517 5.47313 2.38465 4.66119 2.85208 3.97058C3.31951 3.27996 3.9839 2.74169 4.76121 2.42383C5.53853 2.10598 6.39387 2.02281 7.21908 2.18484C8.04428 2.34688 8.80227 2.74684 9.39721 3.33416C9.99214 3.92147 10.3973 4.66976 10.5614 5.48439C10.7256 6.29901 10.6413 7.1434 10.3193 7.91076C9.99736 8.67812 9.45211 9.33399 8.75253 9.79543C8.05295 10.2569 7.23048 10.5032 6.38911 10.5031C5.26129 10.5019 4.18002 10.0591 3.38253 9.27178C2.58504 8.4845 2.13645 7.41709 2.13518 6.30372Z" fill="#062A3B"/>
</svg>
